<?xml version="1.0" standalone="no"?>
<!DOCTYPE svg PUBLIC "-//W3C//DTD SVG 20010904//EN"
 "http://www.w3.org/TR/2001/REC-SVG-20010904/DTD/svg10.dtd">
<svg version="1.0" xmlns="http://www.w3.org/2000/svg"
 width="512.000000pt" height="512.000000pt" viewBox="0 0 512.000000 512.000000"
 preserveAspectRatio="xMidYMid meet">

<g transform="translate(0.000000,512.000000) scale(0.100000,-0.100000)"
fill="#000000" stroke="none">
<path d="M3180 1425 l0 -115 -633 0 -634 0 -21 -23 c-22 -23 -22 -28 -22 -359
0 -316 1 -337 19 -359 l19 -24 636 -3 636 -2 0 -115 0 -114 -897 -3 c-883 -3
-899 -3 -933 -23 -97 -58 -97 -202 0 -260 35 -20 46 -20 1217 -20 1178 0 1182
0 1209 21 51 38 69 71 69 129 0 58 -18 91 -69 129 -24 18 -45 21 -162 24
l-134 4 -2 611 -3 612 -147 3 -148 3 0 -116z m-70 -500 l0 -235 -550 0 -550 0
0 235 0 235 550 0 550 0 0 -235z"/>
</g>
</svg>
